<?xml version="1.0" encoding="UTF-8"?>
<svg xmlns="http://www.w3.org/2000/svg" xmlns:xlink="http://www.w3.org/1999/xlink" width="2400" height="2400" viewBox="0 0 2400 2400">
<rect x="-240" y="-240" width="2880" height="2880" fill="rgb(100%, 100%, 100%)" fill-opacity="1"/>
<path fill-rule="evenodd" fill="rgb(87.889099%, 99.609375%, 100%)" fill-opacity="1" d="M 1873.679688 1018.558594 C 1923.78125 998.410156 1988.589844 946.421875 1970.480469 885.511719 C 1955.339844 841.441406 1898.519531 779.558594 1853.269531 765.359375 C 1801.980469 749.261719 1714.578125 745.121094 1748.449219 827.070312 C 1774.378906 889.808594 1782.960938 872.601562 1789.679688 948.789062 C 1795.21875 1011.628906 1806.359375 1042.339844 1873.679688 1018.558594 "/>
<path fill-rule="evenodd" fill="rgb(87.889099%, 99.609375%, 100%)" fill-opacity="1" d="M 383.980469 1224.089844 C 375.085938 1252.660156 371.050781 1307.808594 384.386719 1334.800781 C 402.988281 1372.449219 444.371094 1307.210938 457.796875 1292.96875 C 495.847656 1253.609375 551.617188 1213.410156 516.121094 1151.769531 C 504.09375 1130.890625 416.871094 1053.519531 397.886719 1081.660156 C 386.21875 1098.949219 396.824219 1164.320312 391.277344 1195.261719 C 389.46875 1205.351562 386.878906 1214.28125 383.980469 1224.089844 "/>
<path fill-rule="evenodd" fill="rgb(87.889099%, 99.609375%, 100%)" fill-opacity="1" d="M 1615.03125 455.441406 C 1632.671875 499.199219 1563.050781 462.441406 1543.378906 460.078125 C 1480.800781 452.578125 1445.789062 492.269531 1390.121094 464.980469 C 1364.488281 452.410156 1376.671875 445.921875 1397.140625 444.269531 C 1446.128906 440.320312 1472.46875 414.371094 1524.550781 409.199219 C 1564.589844 405.230469 1597.488281 417.03125 1615.03125 455.441406 "/>
<path fill-rule="evenodd" fill="rgb(87.889099%, 99.609375%, 100%)" fill-opacity="1" d="M 388.132812 1473.644531 C 397.425781 1393.53125 443.164062 1339.871094 503.910156 1290.828125 C 547.652344 1254.699219 594.503906 1199.429688 573.214844 1138.160156 C 554.453125 1084.160156 432.882812 1046.691406 502.746094 952.410156 C 533.496094 910.921875 616.847656 850.578125 669.140625 836.46875 C 719.101562 822.988281 748.59375 822.730469 790.507812 785.339844 C 839.742188 741.421875 835.6875 672.519531 862.550781 612.539062 L 865.800781 605.28125 C 897.828125 536.730469 957.882812 530.011719 1024.710938 539.308594 C 1108.5 550.96875 1129.300781 521.519531 1193.800781 479.160156 C 1235.320312 451.890625 1266.601562 452.410156 1312.53125 470.53125 C 1379.679688 497.929688 1395.328125 515.429688 1471.351562 498.101562 C 1549.179688 480.351562 1572.878906 530.160156 1626.441406 576.410156 C 1684.019531 626.128906 1716.558594 663.371094 1705.308594 743.808594 C 1684.871094 869.160156 1732.050781 844.648438 1749.179688 944.398438 C 1764.191406 1031.75 1748 1068.960938 1858.851562 1070.480469 C 1932.171875 1070.109375 2038.421875 1048.449219 2038.839844 1153.25 L 2038.710938 1161.328125 C 2034.101562 1238.328125 1974.679688 1310.761719 1906.320312 1342.378906 C 1810.359375 1386.039062 1759.679688 1387.53125 1659.660156 1403.480469 C 1532.371094 1423.785156 1642.621094 1505.910156 1581.980469 1579.445312 C 1483.191406 1699.238281 1282.820312 1636.632812 1188.78125 1753.476562 C 1163.21875 1786.867188 1154.179688 1821.257812 1133.671875 1850.339844 C 1120.191406 1869.445312 1104.421875 1876.535156 1083.019531 1883.300781 C 996.828125 1903.9375 922.800781 1875.042969 834.765625 1892.183594 C 765.546875 1905.660156 661.320312 1949.035156 597.550781 1907.734375 C 562.503906 1885.039062 548.054688 1878.40625 542.015625 1830.863281 C 533.609375 1764.675781 550.246094 1745.664062 526.257812 1670.804688 C 510.519531 1621.695312 494.804688 1593.230469 445.191406 1571.953125 C 392.445312 1551.394531 383.304688 1529.101562 388.132812 1473.644531 "/>
<path fill-rule="evenodd" fill="rgb(87.889099%, 99.609375%, 100%)" fill-opacity="1" d="M 2071.171875 1542.316406 C 2053.671875 1485.867188 1992.660156 1404.976562 1898.058594 1404.648438 C 1829.121094 1406.464844 1723.558594 1444.722656 1691.421875 1485.859375 C 1654.980469 1532.488281 1627.359375 1619.011719 1756.960938 1609.898438 C 1856.199219 1602.921875 1832.839844 1589.082031 1947.238281 1605.484375 C 2041.621094 1619.015625 2089.789062 1617.160156 2071.171875 1542.316406 "/>
<path fill-rule="evenodd" fill="rgb(98.826599%, 89.0625%, 76.951599%)" fill-opacity="1" d="M 881.152344 886.191406 L 851.996094 867 C 838.617188 870.410156 833.535156 870.511719 821.300781 864.089844 L 814.75 861.960938 C 806.660156 860.371094 797.316406 859.800781 789.191406 857.390625 C 786.113281 856.46875 783.207031 855.289062 780.609375 853.691406 L 775.539062 848.191406 L 774.714844 847.089844 L 774.671875 845.589844 L 772.195312 844.03125 L 762.265625 840.960938 L 757.304688 838.328125 L 756.621094 833.859375 L 759.007812 831.140625 L 761.902344 830.410156 L 763.089844 830.390625 L 764.539062 828.921875 L 766.296875 828.371094 L 768.105469 828.378906 L 768.21875 826.910156 L 771.152344 825.078125 L 778.230469 824.308594 L 794.636719 823.441406 L 804.734375 822.988281 L 806.398438 823.371094 L 812.40625 821.550781 L 826.835938 818.101562 L 830.027344 816.160156 L 833.152344 813.730469 L 828.898438 813.269531 C 826.777344 812.851562 825.128906 812.539062 823.761719 812.238281 C 819.316406 811.25 817.863281 810.300781 812.855469 805.609375 C 809.707031 802.660156 808.40625 800.160156 809.730469 797.53125 C 810.527344 795.941406 812.289062 794.300781 815.179688 792.480469 L 823.683594 798.601562 C 823.683594 798.601562 830.414062 800.621094 831.609375 800.988281 C 832.800781 801.371094 842.960938 802.738281 842.960938 802.738281 L 849.285156 807.839844 L 863.117188 826.289062 L 870.472656 837.878906 L 897.972656 856.609375 L 881.152344 886.191406 "/>
<path fill-rule="evenodd" fill="rgb(98.826599%, 89.0625%, 76.951599%)" fill-opacity="1" d="M 1653.410156 890.78125 L 1682.558594 871.589844 C 1695.941406 875 1701.03125 875.101562 1713.261719 868.679688 L 1719.808594 866.539062 C 1727.898438 864.960938 1737.238281 864.390625 1745.371094 861.96875 C 1748.449219 861.058594 1751.351562 859.878906 1753.949219 858.28125 L 1759.019531 852.78125 L 1759.851562 851.679688 L 1759.890625 850.179688 L 1762.371094 848.621094 L 1772.289062 845.550781 L 1777.261719 842.910156 L 1777.941406 838.449219 L 1775.550781 835.730469 L 1772.660156 835 L 1771.46875 834.980469 L 1770.019531 833.511719 L 1768.269531 832.960938 L 1766.460938 832.96875 L 1766.339844 831.488281 L 1763.410156 829.660156 L 1756.328125 828.898438 L 1739.929688 828.019531 L 1729.828125 827.578125 L 1728.160156 827.960938 L 1722.148438 826.140625 L 1707.730469 822.691406 L 1704.53125 820.75 L 1701.410156 818.320312 L 1705.660156 817.859375 C 1707.78125 817.441406 1709.429688 817.128906 1710.800781 816.820312 C 1715.238281 815.828125 1716.699219 814.890625 1721.710938 810.199219 C 1724.851562 807.25 1726.160156 804.75 1724.828125 802.121094 C 1724.03125 800.53125 1722.269531 798.890625 1719.378906 797.070312 L 1710.878906 803.191406 C 1710.878906 803.191406 1704.148438 805.199219 1702.949219 805.578125 C 1701.761719 805.949219 1691.601562 807.328125 1691.601562 807.328125 L 1685.269531 812.429688 L 1671.441406 830.871094 L 1664.089844 842.46875 L 1636.589844 861.191406 L 1653.410156 890.78125 "/>
<path fill-rule="evenodd" fill="rgb(94.921875%, 68.164062%, 18.431091%)" fill-opacity="1" d="M 796.664062 1269.039062 L 1523.148438 1269.039062 L 1523.148438 1382.351562 L 796.664062 1382.351562 L 796.664062 1269.039062 "/>
<path fill-rule="evenodd" fill="rgb(100%, 84.375%, 36.863708%)" fill-opacity="1" d="M 1147.410156 1269.039062 L 1172.398438 1269.039062 L 1172.398438 1382.351562 L 1147.410156 1382.351562 L 1147.410156 1269.039062 "/>
<path fill-rule="evenodd" fill="rgb(100%, 84.375%, 36.863708%)" fill-opacity="1" d="M 1084.429688 1269.039062 L 1109.429688 1269.039062 L 1109.429688 1382.351562 L 1084.429688 1382.351562 L 1084.429688 1269.039062 "/>
<path fill-rule="evenodd" fill="rgb(100%, 84.375%, 36.863708%)" fill-opacity="1" d="M 1021.460938 1269.039062 L 1046.449219 1269.039062 L 1046.449219 1382.351562 L 1021.460938 1382.351562 L 1021.460938 1269.039062 "/>
<path fill-rule="evenodd" fill="rgb(100%, 84.375%, 36.863708%)" fill-opacity="1" d="M 958.480469 1269.039062 L 983.472656 1269.039062 L 983.472656 1382.351562 L 958.480469 1382.351562 L 958.480469 1269.039062 "/>
<path fill-rule="evenodd" fill="rgb(100%, 84.375%, 36.863708%)" fill-opacity="1" d="M 895.503906 1269.039062 L 920.496094 1269.039062 L 920.496094 1382.351562 L 895.503906 1382.351562 L 895.503906 1269.039062 "/>
<path fill-rule="evenodd" fill="rgb(100%, 84.375%, 36.863708%)" fill-opacity="1" d="M 832.527344 1269.039062 L 857.519531 1269.039062 L 857.519531 1382.351562 L 832.527344 1382.351562 L 832.527344 1269.039062 "/>
<path fill-rule="evenodd" fill="rgb(100%, 84.375%, 36.863708%)" fill-opacity="1" d="M 1210.390625 1269.039062 L 1235.378906 1269.039062 L 1235.378906 1382.351562 L 1210.390625 1382.351562 L 1210.390625 1269.039062 "/>
<path fill-rule="evenodd" fill="rgb(100%, 84.375%, 36.863708%)" fill-opacity="1" d="M 1273.359375 1269.039062 L 1298.351562 1269.039062 L 1298.351562 1382.351562 L 1273.359375 1382.351562 L 1273.359375 1269.039062 "/>
<path fill-rule="evenodd" fill="rgb(100%, 84.375%, 36.863708%)" fill-opacity="1" d="M 1336.339844 1269.039062 L 1361.328125 1269.039062 L 1361.328125 1382.351562 L 1336.339844 1382.351562 L 1336.339844 1269.039062 "/>
<path fill-rule="evenodd" fill="rgb(100%, 84.375%, 36.863708%)" fill-opacity="1" d="M 1399.308594 1269.039062 L 1424.308594 1269.039062 L 1424.308594 1382.351562 L 1399.308594 1382.351562 L 1399.308594 1269.039062 "/>
<path fill-rule="evenodd" fill="rgb(100%, 84.375%, 36.863708%)" fill-opacity="1" d="M 1462.289062 1269.039062 L 1487.28125 1269.039062 L 1487.28125 1382.351562 L 1462.289062 1382.351562 L 1462.289062 1269.039062 "/>
<path fill-rule="evenodd" fill="rgb(100%, 100%, 100%)" fill-opacity="1" d="M 863.730469 1286.539062 L 995.777344 1286.539062 L 995.777344 1306.53125 L 863.730469 1306.53125 L 863.730469 1286.539062 "/>
<path fill-rule="evenodd" fill="rgb(89.84375%, 89.84375%, 98.826599%)" fill-opacity="1" d="M 820.824219 1286.539062 L 849.566406 1286.539062 L 849.566406 1306.53125 L 820.824219 1306.53125 L 820.824219 1286.539062 "/>
<path fill-rule="evenodd" fill="rgb(96.875%, 76.951599%, 16.479492%)" fill-opacity="1" d="M 863.316406 1382.351562 L 1589.800781 1382.351562 L 1589.800781 1495.652344 L 863.316406 1495.652344 L 863.316406 1382.351562 "/>
<path fill-rule="evenodd" fill="rgb(100%, 88.28125%, 52.146912%)" fill-opacity="1" d="M 1214.058594 1382.351562 L 1239.050781 1382.351562 L 1239.050781 1495.652344 L 1214.058594 1495.652344 L 1214.058594 1382.351562 "/>
<path fill-rule="evenodd" fill="rgb(100%, 88.28125%, 52.146912%)" fill-opacity="1" d="M 1151.078125 1382.351562 L 1176.078125 1382.351562 L 1176.078125 1495.652344 L 1151.078125 1495.652344 L 1151.078125 1382.351562 "/>
<path fill-rule="evenodd" fill="rgb(100%, 88.28125%, 52.146912%)" fill-opacity="1" d="M 1088.109375 1382.351562 L 1113.101562 1382.351562 L 1113.101562 1495.652344 L 1088.109375 1495.652344 L 1088.109375 1382.351562 "/>
<path fill-rule="evenodd" fill="rgb(100%, 88.28125%, 52.146912%)" fill-opacity="1" d="M 1025.128906 1382.351562 L 1050.121094 1382.351562 L 1050.121094 1495.652344 L 1025.128906 1495.652344 L 1025.128906 1382.351562 "/>
<path fill-rule="evenodd" fill="rgb(100%, 88.28125%, 52.146912%)" fill-opacity="1" d="M 962.15625 1382.351562 L 987.148438 1382.351562 L 987.148438 1495.652344 L 962.15625 1495.652344 L 962.15625 1382.351562 "/>
<path fill-rule="evenodd" fill="rgb(100%, 88.28125%, 52.146912%)" fill-opacity="1" d="M 899.179688 1382.351562 L 924.171875 1382.351562 L 924.171875 1495.652344 L 899.179688 1495.652344 L 899.179688 1382.351562 "/>
<path fill-rule="evenodd" fill="rgb(100%, 88.28125%, 52.146912%)" fill-opacity="1" d="M 1277.039062 1382.351562 L 1302.03125 1382.351562 L 1302.03125 1495.652344 L 1277.039062 1495.652344 L 1277.039062 1382.351562 "/>
<path fill-rule="evenodd" fill="rgb(100%, 88.28125%, 52.146912%)" fill-opacity="1" d="M 1340.011719 1382.351562 L 1365 1382.351562 L 1365 1495.652344 L 1340.011719 1495.652344 L 1340.011719 1382.351562 "/>
<path fill-rule="evenodd" fill="rgb(100%, 88.28125%, 52.146912%)" fill-opacity="1" d="M 1402.988281 1382.351562 L 1427.980469 1382.351562 L 1427.980469 1495.652344 L 1402.988281 1495.652344 L 1402.988281 1382.351562 "/>
<path fill-rule="evenodd" fill="rgb(100%, 88.28125%, 52.146912%)" fill-opacity="1" d="M 1465.960938 1382.351562 L 1490.960938 1382.351562 L 1490.960938 1495.652344 L 1465.960938 1495.652344 L 1465.960938 1382.351562 "/>
<path fill-rule="evenodd" fill="rgb(100%, 88.28125%, 52.146912%)" fill-opacity="1" d="M 1528.941406 1382.351562 L 1553.929688 1382.351562 L 1553.929688 1495.652344 L 1528.941406 1495.652344 L 1528.941406 1382.351562 "/>
<path fill-rule="evenodd" fill="rgb(100%, 88.28125%, 52.146912%)" fill-opacity="1" d="M 930.378906 1399.839844 L 1062.429688 1399.839844 L 1062.429688 1419.839844 L 930.378906 1419.839844 L 930.378906 1399.839844 "/>
<path fill-rule="evenodd" fill="rgb(100%, 88.28125%, 52.146912%)" fill-opacity="1" d="M 887.472656 1399.839844 L 916.214844 1399.839844 L 916.214844 1419.839844 L 887.472656 1419.839844 L 887.472656 1399.839844 "/>
<path fill-rule="evenodd" fill="rgb(94.921875%, 68.164062%, 18.431091%)" fill-opacity="1" d="M 825.332031 1495.652344 L 1551.808594 1495.652344 L 1551.808594 1608.960938 L 825.332031 1608.960938 L 825.332031 1495.652344 "/>
<path fill-rule="evenodd" fill="rgb(100%, 84.764099%, 38.035583%)" fill-opacity="1" d="M 1176.078125 1495.652344 L 1201.070312 1495.652344 L 1201.070312 1608.960938 L 1176.078125 1608.960938 L 1176.078125 1495.652344 "/>
<path fill-rule="evenodd" fill="rgb(100%, 84.764099%, 38.035583%)" fill-opacity="1" d="M 1113.101562 1495.652344 L 1138.089844 1495.652344 L 1138.089844 1608.960938 L 1113.101562 1608.960938 L 1113.101562 1495.652344 "/>
<path fill-rule="evenodd" fill="rgb(100%, 84.764099%, 38.035583%)" fill-opacity="1" d="M 1050.121094 1495.652344 L 1075.121094 1495.652344 L 1075.121094 1608.960938 L 1050.121094 1608.960938 L 1050.121094 1495.652344 "/>
<path fill-rule="evenodd" fill="rgb(100%, 84.764099%, 38.035583%)" fill-opacity="1" d="M 987.148438 1495.652344 L 1012.140625 1495.652344 L 1012.140625 1608.960938 L 987.148438 1608.960938 L 987.148438 1495.652344 "/>
<path fill-rule="evenodd" fill="rgb(100%, 84.764099%, 38.035583%)" fill-opacity="1" d="M 924.171875 1495.652344 L 949.164062 1495.652344 L 949.164062 1608.960938 L 924.171875 1608.960938 L 924.171875 1495.652344 "/>
<path fill-rule="evenodd" fill="rgb(100%, 84.764099%, 38.035583%)" fill-opacity="1" d="M 861.195312 1495.652344 L 886.1875 1495.652344 L 886.1875 1608.960938 L 861.195312 1608.960938 L 861.195312 1495.652344 "/>
<path fill-rule="evenodd" fill="rgb(100%, 84.764099%, 38.035583%)" fill-opacity="1" d="M 1239.050781 1495.652344 L 1264.039062 1495.652344 L 1264.039062 1608.960938 L 1239.050781 1608.960938 L 1239.050781 1495.652344 "/>
<path fill-rule="evenodd" fill="rgb(100%, 84.764099%, 38.035583%)" fill-opacity="1" d="M 1302.03125 1495.652344 L 1327.019531 1495.652344 L 1327.019531 1608.960938 L 1302.03125 1608.960938 L 1302.03125 1495.652344 "/>
<path fill-rule="evenodd" fill="rgb(100%, 84.764099%, 38.035583%)" fill-opacity="1" d="M 1365 1495.652344 L 1390 1495.652344 L 1390 1608.960938 L 1365 1608.960938 L 1365 1495.652344 "/>
<path fill-rule="evenodd" fill="rgb(100%, 84.764099%, 38.035583%)" fill-opacity="1" d="M 1427.980469 1495.652344 L 1452.96875 1495.652344 L 1452.96875 1608.960938 L 1427.980469 1608.960938 L 1427.980469 1495.652344 "/>
<path fill-rule="evenodd" fill="rgb(100%, 84.764099%, 38.035583%)" fill-opacity="1" d="M 1490.960938 1495.652344 L 1515.949219 1495.652344 L 1515.949219 1608.960938 L 1490.960938 1608.960938 L 1490.960938 1495.652344 "/>
<path fill-rule="evenodd" fill="rgb(100%, 84.764099%, 38.035583%)" fill-opacity="1" d="M 892.394531 1513.148438 L 1024.449219 1513.148438 L 1024.449219 1533.144531 L 892.394531 1533.144531 L 892.394531 1513.148438 "/>
<path fill-rule="evenodd" fill="rgb(100%, 84.764099%, 38.035583%)" fill-opacity="1" d="M 849.488281 1513.148438 L 878.230469 1513.148438 L 878.230469 1533.144531 L 849.488281 1533.144531 L 849.488281 1513.148438 "/>
<path fill-rule="evenodd" fill="rgb(96.875%, 76.951599%, 16.479492%)" fill-opacity="1" d="M 959.199219 1608.960938 L 1685.679688 1608.960938 L 1685.679688 1722.265625 L 959.199219 1722.265625 L 959.199219 1608.960938 "/>
<path fill-rule="evenodd" fill="rgb(100%, 88.28125%, 52.146912%)" fill-opacity="1" d="M 1309.941406 1608.960938 L 1334.941406 1608.960938 L 1334.941406 1722.265625 L 1309.941406 1722.265625 L 1309.941406 1608.960938 "/>
<path fill-rule="evenodd" fill="rgb(100%, 88.28125%, 52.146912%)" fill-opacity="1" d="M 1246.96875 1608.960938 L 1271.960938 1608.960938 L 1271.960938 1722.265625 L 1246.96875 1722.265625 L 1246.96875 1608.960938 "/>
<path fill-rule="evenodd" fill="rgb(100%, 88.28125%, 52.146912%)" fill-opacity="1" d="M 1183.988281 1608.960938 L 1208.980469 1608.960938 L 1208.980469 1722.265625 L 1183.988281 1722.265625 L 1183.988281 1608.960938 "/>
<path fill-rule="evenodd" fill="rgb(100%, 88.28125%, 52.146912%)" fill-opacity="1" d="M 1121.011719 1608.960938 L 1146.011719 1608.960938 L 1146.011719 1722.265625 L 1121.011719 1722.265625 L 1121.011719 1608.960938 "/>
<path fill-rule="evenodd" fill="rgb(100%, 88.28125%, 52.146912%)" fill-opacity="1" d="M 1058.039062 1608.960938 L 1083.03125 1608.960938 L 1083.03125 1722.265625 L 1058.039062 1722.265625 L 1058.039062 1608.960938 "/>
<path fill-rule="evenodd" fill="rgb(100%, 88.28125%, 52.146912%)" fill-opacity="1" d="M 995.0625 1608.960938 L 1020.050781 1608.960938 L 1020.050781 1722.265625 L 995.0625 1722.265625 L 995.0625 1608.960938 "/>
<path fill-rule="evenodd" fill="rgb(100%, 88.28125%, 52.146912%)" fill-opacity="1" d="M 1372.921875 1608.960938 L 1397.910156 1608.960938 L 1397.910156 1722.265625 L 1372.921875 1722.265625 L 1372.921875 1608.960938 "/>
<path fill-rule="evenodd" fill="rgb(100%, 88.28125%, 52.146912%)" fill-opacity="1" d="M 1435.898438 1608.960938 L 1460.890625 1608.960938 L 1460.890625 1722.265625 L 1435.898438 1722.265625 L 1435.898438 1608.960938 "/>
<path fill-rule="evenodd" fill="rgb(100%, 88.28125%, 52.146912%)" fill-opacity="1" d="M 1498.871094 1608.960938 L 1523.859375 1608.960938 L 1523.859375 1722.265625 L 1498.871094 1722.265625 L 1498.871094 1608.960938 "/>
<path fill-rule="evenodd" fill="rgb(100%, 88.28125%, 52.146912%)" fill-opacity="1" d="M 1561.851562 1608.960938 L 1586.839844 1608.960938 L 1586.839844 1722.265625 L 1561.851562 1722.265625 L 1561.851562 1608.960938 "/>
<path fill-rule="evenodd" fill="rgb(100%, 88.28125%, 52.146912%)" fill-opacity="1" d="M 1624.820312 1608.960938 L 1649.820312 1608.960938 L 1649.820312 1722.265625 L 1624.820312 1722.265625 L 1624.820312 1608.960938 "/>
<path fill-rule="evenodd" fill="rgb(100%, 100%, 100%)" fill-opacity="1" d="M 1026.261719 1626.453125 L 1158.308594 1626.453125 L 1158.308594 1646.449219 L 1026.261719 1646.449219 L 1026.261719 1626.453125 "/>
<path fill-rule="evenodd" fill="rgb(100%, 88.28125%, 52.146912%)" fill-opacity="1" d="M 983.355469 1626.453125 L 1012.101562 1626.453125 L 1012.101562 1646.449219 L 983.355469 1646.449219 L 983.355469 1626.453125 "/>
<path fill-rule="evenodd" fill="rgb(100%, 84.764099%, 38.035583%)" fill-opacity="1" d="M 1097.648438 1722.265625 L 1824.128906 1722.265625 L 1824.128906 1835.570312 L 1097.648438 1835.570312 L 1097.648438 1722.265625 "/>
<path fill-rule="evenodd" fill="rgb(96.875%, 76.951599%, 16.479492%)" fill-opacity="1" d="M 1448.390625 1722.265625 L 1473.378906 1722.265625 L 1473.378906 1835.570312 L 1448.390625 1835.570312 L 1448.390625 1722.265625 "/>
<path fill-rule="evenodd" fill="rgb(96.875%, 76.951599%, 16.479492%)" fill-opacity="1" d="M 1385.421875 1722.265625 L 1410.410156 1722.265625 L 1410.410156 1835.570312 L 1385.421875 1835.570312 L 1385.421875 1722.265625 "/>
<path fill-rule="evenodd" fill="rgb(96.875%, 76.951599%, 16.479492%)" fill-opacity="1" d="M 1322.441406 1722.265625 L 1347.429688 1722.265625 L 1347.429688 1835.570312 L 1322.441406 1835.570312 L 1322.441406 1722.265625 "/>
<path fill-rule="evenodd" fill="rgb(96.875%, 76.951599%, 16.479492%)" fill-opacity="1" d="M 1259.460938 1722.265625 L 1284.460938 1722.265625 L 1284.460938 1835.570312 L 1259.460938 1835.570312 L 1259.460938 1722.265625 "/>
<path fill-rule="evenodd" fill="rgb(96.875%, 76.951599%, 16.479492%)" fill-opacity="1" d="M 1196.488281 1722.265625 L 1221.480469 1722.265625 L 1221.480469 1835.570312 L 1196.488281 1835.570312 L 1196.488281 1722.265625 "/>
<path fill-rule="evenodd" fill="rgb(96.875%, 76.951599%, 16.479492%)" fill-opacity="1" d="M 1133.511719 1722.265625 L 1158.5 1722.265625 L 1158.5 1835.570312 L 1133.511719 1835.570312 L 1133.511719 1722.265625 "/>
<path fill-rule="evenodd" fill="rgb(96.875%, 76.951599%, 16.479492%)" fill-opacity="1" d="M 1511.371094 1722.265625 L 1536.359375 1722.265625 L 1536.359375 1835.570312 L 1511.371094 1835.570312 L 1511.371094 1722.265625 "/>
<path fill-rule="evenodd" fill="rgb(96.875%, 76.951599%, 16.479492%)" fill-opacity="1" d="M 1574.339844 1722.265625 L 1599.339844 1722.265625 L 1599.339844 1835.570312 L 1574.339844 1835.570312 L 1574.339844 1722.265625 "/>
<path fill-rule="evenodd" fill="rgb(96.875%, 76.951599%, 16.479492%)" fill-opacity="1" d="M 1637.320312 1722.265625 L 1662.308594 1722.265625 L 1662.308594 1835.570312 L 1637.320312 1835.570312 L 1637.320312 1722.265625 "/>
<path fill-rule="evenodd" fill="rgb(96.875%, 76.951599%, 16.479492%)" fill-opacity="1" d="M 1700.300781 1722.265625 L 1725.289062 1722.265625 L 1725.289062 1835.570312 L 1700.300781 1835.570312 L 1700.300781 1722.265625 "/>
<path fill-rule="evenodd" fill="rgb(96.875%, 76.951599%, 16.479492%)" fill-opacity="1" d="M 1763.269531 1722.265625 L 1788.269531 1722.265625 L 1788.269531 1835.570312 L 1763.269531 1835.570312 L 1763.269531 1722.265625 "/>
<path fill-rule="evenodd" fill="rgb(100%, 100%, 100%)" fill-opacity="1" d="M 1164.710938 1739.757812 L 1296.761719 1739.757812 L 1296.761719 1759.753906 L 1164.710938 1759.753906 L 1164.710938 1739.757812 "/>
<path fill-rule="evenodd" fill="rgb(100%, 100%, 100%)" fill-opacity="1" d="M 1121.808594 1739.757812 L 1150.550781 1739.757812 L 1150.550781 1759.753906 L 1121.808594 1759.753906 L 1121.808594 1739.757812 "/>
<path fill-rule="evenodd" fill="rgb(100%, 88.28125%, 52.146912%)" fill-opacity="1" d="M 1085.148438 1835.570312 L 1811.628906 1835.570312 L 1811.628906 1948.875 L 1085.148438 1948.875 L 1085.148438 1835.570312 "/>
<path fill-rule="evenodd" fill="rgb(94.921875%, 68.164062%, 18.431091%)" fill-opacity="1" d="M 1435.898438 1835.570312 L 1460.890625 1835.570312 L 1460.890625 1948.875 L 1435.898438 1948.875 L 1435.898438 1835.570312 "/>
<path fill-rule="evenodd" fill="rgb(94.921875%, 68.164062%, 18.431091%)" fill-opacity="1" d="M 1372.921875 1835.570312 L 1397.910156 1835.570312 L 1397.910156 1948.875 L 1372.921875 1948.875 L 1372.921875 1835.570312 "/>
<path fill-rule="evenodd" fill="rgb(94.921875%, 68.164062%, 18.431091%)" fill-opacity="1" d="M 1309.941406 1835.570312 L 1334.941406 1835.570312 L 1334.941406 1948.875 L 1309.941406 1948.875 L 1309.941406 1835.570312 "/>
<path fill-rule="evenodd" fill="rgb(94.921875%, 68.164062%, 18.431091%)" fill-opacity="1" d="M 1246.96875 1835.570312 L 1271.960938 1835.570312 L 1271.960938 1948.875 L 1246.96875 1948.875 L 1246.96875 1835.570312 "/>
<path fill-rule="evenodd" fill="rgb(94.921875%, 68.164062%, 18.431091%)" fill-opacity="1" d="M 1183.988281 1835.570312 L 1208.980469 1835.570312 L 1208.980469 1948.875 L 1183.988281 1948.875 L 1183.988281 1835.570312 "/>
<path fill-rule="evenodd" fill="rgb(94.921875%, 68.164062%, 18.431091%)" fill-opacity="1" d="M 1121.011719 1835.570312 L 1146.011719 1835.570312 L 1146.011719 1948.875 L 1121.011719 1948.875 L 1121.011719 1835.570312 "/>
<path fill-rule="evenodd" fill="rgb(94.921875%, 68.164062%, 18.431091%)" fill-opacity="1" d="M 1498.871094 1835.570312 L 1523.859375 1835.570312 L 1523.859375 1948.875 L 1498.871094 1948.875 L 1498.871094 1835.570312 "/>
<path fill-rule="evenodd" fill="rgb(94.921875%, 68.164062%, 18.431091%)" fill-opacity="1" d="M 1561.851562 1835.570312 L 1586.839844 1835.570312 L 1586.839844 1948.875 L 1561.851562 1948.875 L 1561.851562 1835.570312 "/>
<path fill-rule="evenodd" fill="rgb(94.921875%, 68.164062%, 18.431091%)" fill-opacity="1" d="M 1624.820312 1835.570312 L 1649.820312 1835.570312 L 1649.820312 1948.875 L 1624.820312 1948.875 L 1624.820312 1835.570312 "/>
<path fill-rule="evenodd" fill="rgb(94.921875%, 68.164062%, 18.431091%)" fill-opacity="1" d="M 1687.800781 1835.570312 L 1712.789062 1835.570312 L 1712.789062 1948.875 L 1687.800781 1948.875 L 1687.800781 1835.570312 "/>
<path fill-rule="evenodd" fill="rgb(94.921875%, 68.164062%, 18.431091%)" fill-opacity="1" d="M 1750.78125 1835.570312 L 1775.769531 1835.570312 L 1775.769531 1948.875 L 1750.78125 1948.875 L 1750.78125 1835.570312 "/>
<path fill-rule="evenodd" fill="rgb(100%, 100%, 100%)" fill-opacity="1" d="M 1152.210938 1853.0625 L 1284.261719 1853.0625 L 1284.261719 1873.058594 L 1152.210938 1873.058594 L 1152.210938 1853.0625 "/>
<path fill-rule="evenodd" fill="rgb(100%, 100%, 100%)" fill-opacity="1" d="M 1109.308594 1853.0625 L 1138.050781 1853.0625 L 1138.050781 1873.058594 L 1109.308594 1873.058594 L 1109.308594 1853.0625 "/>
<path fill-rule="evenodd" fill="rgb(94.921875%, 68.164062%, 18.431091%)" fill-opacity="1" d="M 845.449219 1284.089844 C 1046.058594 1310.128906 1170.351562 1488.894531 1123.058594 1683.367188 C 1075.761719 1877.84375 874.796875 2014.386719 674.183594 1988.34375 C 473.570312 1962.304688 349.28125 1783.542969 396.574219 1589.066406 C 443.867188 1394.589844 644.835938 1258.050781 845.449219 1284.089844 "/>
<path fill-rule="evenodd" fill="rgb(100%, 84.764099%, 38.035583%)" fill-opacity="1" d="M 783.796875 1276.089844 C 984.410156 1302.128906 1108.699219 1480.890625 1061.410156 1675.367188 C 1014.109375 1869.839844 813.144531 2006.382812 612.53125 1980.34375 C 411.917969 1954.300781 287.628906 1775.539062 334.921875 1581.066406 C 382.214844 1386.589844 583.1875 1250.050781 783.796875 1276.089844 "/>
<path fill-rule="evenodd" fill="rgb(94.921875%, 68.164062%, 18.431091%)" fill-opacity="1" d="M 768.230469 1340.109375 C 932.367188 1361.421875 1034.058594 1507.679688 995.363281 1666.792969 C 956.667969 1825.90625 792.238281 1937.625 628.101562 1916.320312 C 463.964844 1895.015625 362.269531 1748.753906 400.964844 1589.636719 C 439.660156 1430.523438 604.089844 1318.808594 768.230469 1340.109375 "/>
<path fill-rule="evenodd" fill="rgb(100%, 88.28125%, 52.146912%)" fill-opacity="1" d="M 764.335938 1356.121094 C 919.355469 1376.238281 1015.398438 1514.375 978.851562 1664.648438 C 942.308594 1814.925781 787.011719 1920.4375 631.992188 1900.3125 C 476.976562 1880.191406 380.933594 1742.054688 417.476562 1591.78125 C 454.023438 1441.507812 609.316406 1336 764.335938 1356.121094 "/>
<path fill-rule="evenodd" fill="rgb(9.397888%, 20.776367%, 36.863708%)" fill-opacity="1" d="M 1467.519531 948.71875 C 1433.300781 1081.199219 1632.5 921.941406 1682.25 887.46875 L 1657.058594 840.371094 L 1532.5 904.058594 L 1484.421875 926.761719 L 1467.519531 948.71875 "/>
<path fill-rule="evenodd" fill="rgb(9.397888%, 20.776367%, 36.863708%)" fill-opacity="1" d="M 1432.238281 813.308594 L 1503.730469 926.320312 L 1509.179688 968.800781 C 1490.691406 1031.320312 1463.269531 991.738281 1426.398438 946.601562 C 1395.398438 908.660156 1356.859375 859.410156 1332.96875 818.078125 C 1279.121094 724.941406 1364.78125 692.589844 1432.238281 813.308594 "/>
<path fill-rule="evenodd" fill="rgb(9.397888%, 20.776367%, 36.863708%)" fill-opacity="1" d="M 1423.730469 1548.867188 C 1426.910156 1554.210938 1437.230469 1583.027344 1437.230469 1583.027344 C 1448.441406 1604.457031 1458.609375 1625.347656 1476.878906 1641.601562 C 1480.800781 1645.085938 1484.660156 1648.550781 1487.800781 1651.769531 C 1493.191406 1657.296875 1495.71875 1669.882812 1484.339844 1672.121094 C 1460.601562 1676.792969 1422.570312 1641.304688 1403.378906 1628.21875 C 1397.460938 1624.183594 1391.199219 1620.691406 1385.121094 1616.933594 C 1375.761719 1611.152344 1362.839844 1604.394531 1355.710938 1596.160156 C 1344.878906 1583.640625 1353.269531 1577.609375 1374.390625 1556.90625 C 1377.621094 1553.746094 1380.140625 1550.28125 1381.078125 1544.886719 L 1393.789062 1545.683594 L 1404.398438 1544.363281 L 1423.730469 1548.867188 "/>
<path fill-rule="evenodd" fill="rgb(18.041992%, 32.151794%, 51.756287%)" fill-opacity="1" d="M 1347.351562 1022.570312 C 1136.398438 1152.128906 1352.308594 1241.328125 1529.140625 1328.429688 C 1555.351562 1343.191406 1616.429688 1394.921875 1639.019531 1360.738281 C 1669.699219 1314.308594 1582.238281 1254.199219 1538.800781 1211.46875 L 1510.25 1183.839844 L 1347.351562 1022.570312 "/>
<path fill-rule="evenodd" fill="rgb(18.041992%, 32.151794%, 51.756287%)" fill-opacity="1" d="M 1339.53125 1026.261719 C 1089.828125 1009.789062 1215.75 1209.558594 1310.660156 1384.761719 C 1323.648438 1412.257812 1334.480469 1459.296875 1373.089844 1444.308594 C 1425.53125 1423.953125 1397.851562 1354.578125 1387 1293.960938 L 1379.609375 1254.480469 L 1339.53125 1026.261719 "/>
<path fill-rule="evenodd" fill="rgb(18.041992%, 32.151794%, 51.756287%)" fill-opacity="1" d="M 1630.261719 1369.070312 C 1587 1414.800781 1542.089844 1455.660156 1498.550781 1498.8125 C 1482.921875 1514.296875 1467.46875 1530.074219 1452.339844 1546.480469 L 1429.5 1570.601562 C 1390.761719 1572.480469 1370.109375 1562.367188 1374.148438 1537.792969 C 1410.828125 1490.988281 1518.671875 1355.71875 1551.980469 1306.449219 L 1595.078125 1325.011719 C 1595.078125 1325.011719 1589.339844 1349.640625 1599.289062 1352.769531 C 1609.238281 1355.898438 1614.339844 1354.488281 1617.28125 1354.410156 C 1620.21875 1354.328125 1630.261719 1369.070312 1630.261719 1369.070312 "/>
<path fill-rule="evenodd" fill="rgb(9.397888%, 20.776367%, 36.863708%)" fill-opacity="1" d="M 1366.738281 1643.25 C 1372.421875 1646.796875 1396.5 1669.308594 1396.5 1669.308594 C 1417.789062 1684.304688 1437.820312 1699.300781 1463.320312 1705.863281 C 1468.789062 1707.269531 1474.191406 1708.683594 1478.78125 1710.222656 C 1486.660156 1712.859375 1495.289062 1723.664062 1485.488281 1731.417969 C 1465.058594 1747.578125 1411.160156 1732.332031 1386.339844 1729.257812 C 1378.691406 1728.304688 1370.980469 1728.046875 1363.300781 1727.445312 C 1351.488281 1726.523438 1335.789062 1726.414062 1324.910156 1722.039062 C 1308.371094 1715.382812 1313.429688 1705.476562 1323.460938 1675.25 C 1324.988281 1670.636719 1325.699219 1666.070312 1323.941406 1660.445312 L 1336.511719 1654.945312 L 1346.011719 1648.457031 L 1366.738281 1643.25 "/>
<path fill-rule="evenodd" fill="rgb(18.041992%, 32.151794%, 51.756287%)" fill-opacity="1" d="M 1404 1389.019531 C 1397.558594 1446.984375 1398.21875 1505.421875 1390.140625 1561.644531 C 1387.238281 1581.816406 1384.628906 1602.113281 1382.601562 1622.691406 L 1379.199219 1653.28125 C 1351.609375 1676.308594 1330.699219 1680.367188 1319.949219 1659.945312 C 1320.929688 1604.855469 1314.050781 1441.480469 1311.160156 1386.460938 L 1353.378906 1376.101562 C 1353.378906 1376.101562 1362.890625 1397.511719 1372 1394.269531 C 1381.109375 1391.019531 1384.078125 1387.140625 1386.210938 1385.441406 C 1388.339844 1383.730469 1404 1389.019531 1404 1389.019531 "/>
<path fill-rule="evenodd" fill="rgb(94.921875%, 74.414062%, 59.959412%)" fill-opacity="1" d="M 1249.390625 745.660156 L 1275.421875 754.441406 L 1305.210938 755.300781 L 1325.960938 735.578125 L 1319.75 695.519531 L 1315.480469 677.789062 L 1290.339844 663.671875 L 1267.628906 674.191406 L 1254.03125 675.039062 L 1249.390625 745.660156 "/>
<path fill-rule="evenodd" fill="rgb(24.705505%, 10.984802%, 18.821716%)" fill-opacity="1" d="M 1336.210938 598.199219 C 1346.640625 614.578125 1344.46875 678.03125 1337.128906 657.449219 L 1329.371094 635.691406 L 1326.308594 610.550781 L 1324.460938 595.171875 L 1336.210938 598.199219 "/>
<path fill-rule="evenodd" fill="rgb(98.826599%, 89.0625%, 76.951599%)" fill-opacity="1" d="M 1231.601562 664.261719 C 1235.78125 677.929688 1239.660156 693.710938 1247.648438 705.308594 C 1261.960938 726.109375 1286.25 736.199219 1312.640625 720.199219 C 1313.441406 719.71875 1314.199219 719.21875 1314.929688 718.699219 C 1331.691406 706.640625 1335.640625 683.691406 1335.609375 668.429688 C 1335.609375 667.25 1335.828125 666.109375 1335.960938 664.988281 C 1337.921875 641.441406 1338.570312 624.410156 1329.039062 607.808594 C 1312.378906 578.769531 1255.078125 565.46875 1235.691406 605.03125 C 1225.628906 625.570312 1229.769531 642.640625 1231.601562 664.261719 "/>
<path fill-rule="evenodd" fill="rgb(24.705505%, 10.984802%, 18.821716%)" fill-opacity="1" d="M 1230.070312 648.960938 C 1229.160156 639.769531 1228.628906 631.121094 1230.121094 622.238281 L 1224.480469 626.921875 L 1224.179688 642.058594 C 1225.75 643.128906 1227.46875 644.960938 1229.28125 647.738281 C 1229.539062 648.140625 1229.808594 648.539062 1230.070312 648.960938 "/>
<path fill-rule="evenodd" fill="rgb(24.705505%, 10.984802%, 18.821716%)" fill-opacity="1" d="M 1231.859375 622.609375 C 1247.511719 591.980469 1293.960938 603.628906 1322.601562 605.46875 C 1338.171875 625.699219 1360.808594 598.820312 1359.390625 578.699219 C 1357.371094 549.96875 1315.21875 516.679688 1301.320312 536.890625 C 1291.039062 551.859375 1308.210938 556.738281 1282.429688 563.910156 C 1270.320312 567.28125 1254.621094 563.699219 1249 568.421875 C 1218.550781 580.230469 1218.980469 619.660156 1224.179688 642.058594 L 1231.859375 622.609375 "/>
<path fill-rule="evenodd" fill="rgb(24.705505%, 10.984802%, 18.821716%)" fill-opacity="1" d="M 1234.089844 608.550781 C 1233.628906 608.359375 1248.53125 637.699219 1230.070312 648.960938 L 1228.769531 644.949219 L 1227.300781 624.578125 L 1234.089844 608.550781 "/>
<path fill-rule="evenodd" fill="rgb(98.826599%, 89.0625%, 76.951599%)" fill-opacity="1" d="M 1233.160156 670.390625 L 1241.941406 672.089844 L 1238.621094 663.089844 C 1237.691406 661.558594 1233.078125 653.558594 1229.28125 647.738281 C 1214.859375 625.660156 1206.300781 663.171875 1233.160156 670.390625 "/>
<path fill-rule="evenodd" fill="rgb(98.826599%, 89.0625%, 76.951599%)" fill-opacity="1" d="M 1332.96875 666.269531 L 1335.371094 651.320312 C 1338.910156 640.25 1347.058594 637.921875 1346.230469 650.550781 C 1345.011719 668.929688 1341.980469 666.828125 1333.308594 675.738281 L 1332.96875 666.269531 "/>
<path fill-rule="evenodd" fill="rgb(80.46875%, 83.984375%, 43.920898%)" fill-opacity="1" d="M 1296.378906 741.878906 C 1223.050781 737.238281 1162.78125 706.980469 1153.53125 776.769531 C 1140.230469 877.179688 1210.328125 913.121094 1186.75 1069.878906 C 1237.589844 1131.78125 1344.929688 1143.578125 1425.601562 1093.460938 C 1404.101562 925.761719 1464.761719 691.289062 1296.378906 741.878906 "/>
<path fill-rule="evenodd" fill="rgb(94.921875%, 74.414062%, 59.959412%)" fill-opacity="1" d="M 1325.960938 735.578125 C 1325.960938 735.578125 1325.800781 735.378906 1325.960938 735.578125 C 1325.929688 735.578125 1325.910156 735.578125 1325.878906 735.570312 C 1321.808594 735.410156 1309.941406 731.898438 1292.109375 731.320312 C 1276.699219 730.808594 1264.691406 732.941406 1255.96875 732.980469 C 1253.238281 733 1249.179688 735.910156 1249.980469 736.609375 C 1264.570312 749.410156 1304.949219 776.488281 1325.960938 735.578125 "/>
<path fill-rule="evenodd" fill="rgb(24.705505%, 10.984802%, 18.821716%)" fill-opacity="1" d="M 1235.78125 583.539062 C 1256.609375 601.390625 1303.058594 638.550781 1334.300781 615.699219 L 1337.769531 608.898438 L 1318.859375 578.609375 L 1293.660156 578.359375 C 1293.660156 578.359375 1270.929688 578.609375 1268.46875 578.609375 C 1266.011719 578.609375 1235.78125 583.539062 1235.78125 583.539062 "/>
<path fill-rule="evenodd" fill="rgb(24.705505%, 10.984802%, 18.821716%)" fill-opacity="1" d="M 1275.730469 586.160156 C 1265.449219 600.71875 1242.941406 632.308594 1227.519531 613.679688 L 1225.421875 606.839844 L 1234.75 582.140625 L 1247.171875 581.929688 C 1247.171875 581.929688 1258.390625 582.140625 1259.601562 582.140625 C 1260.808594 582.140625 1275.730469 586.160156 1275.730469 586.160156 "/>
<path fill-rule="evenodd" fill="rgb(9.397888%, 20.776367%, 36.863708%)" fill-opacity="1" d="M 1070.628906 946.011719 C 1104.839844 1078.488281 905.648438 919.230469 855.894531 884.761719 L 881.089844 837.660156 L 1005.640625 901.339844 L 1053.730469 924.050781 L 1070.628906 946.011719 "/>
<path fill-rule="evenodd" fill="rgb(9.397888%, 20.776367%, 36.863708%)" fill-opacity="1" d="M 1105.910156 810.601562 L 1034.421875 923.609375 L 1028.96875 966.078125 C 1047.460938 1028.609375 1074.878906 989.03125 1111.75 943.890625 C 1142.75 905.949219 1181.289062 856.699219 1205.179688 815.371094 C 1259.03125 722.230469 1173.371094 689.878906 1105.910156 810.601562 "/>
<path fill-rule="evenodd" fill="rgb(9.397888%, 20.776367%, 36.863708%)" fill-opacity="1" d="M 1163.429688 869.128906 C 1162.46875 870.449219 1158.808594 874.308594 1157.828125 875.621094 C 1156.53125 877.378906 1159.800781 882.691406 1158.488281 884.449219 L 1170.289062 939.53125 L 1173.621094 1017.851562 L 1160.710938 1109.488281 L 1263.230469 1147 L 1286.929688 1159.480469 L 1283.671875 1122.191406 L 1279.820312 1078.089844 L 1275.398438 1027.578125 L 1250.808594 746.140625 L 1249.980469 736.609375 C 1249.910156 736.550781 1249.878906 736.46875 1249.878906 736.371094 C 1223.910156 732.488281 1201.308594 728.960938 1184.410156 733.570312 C 1212.230469 726.53125 1207.21875 749.449219 1196.410156 786.808594 C 1193.699219 796.148438 1184.21875 804.070312 1177.679688 815.371094 C 1166.761719 834.269531 1178.371094 848.75 1163.429688 869.128906 "/>
<path fill-rule="evenodd" fill="rgb(9.397888%, 20.776367%, 36.863708%)" fill-opacity="1" d="M 1338.539062 827.441406 L 1368.078125 1043.089844 L 1377.949219 1115.199219 L 1380.648438 1134.898438 L 1435.46875 1095.710938 C 1432.828125 1029.300781 1430.019531 967.441406 1423.96875 901.621094 L 1424.941406 866.570312 L 1432.871094 838.769531 L 1414.480469 807.761719 C 1410.03125 787.390625 1400.289062 770.269531 1390.011719 757.75 C 1380.941406 746.691406 1369.121094 739.21875 1353.738281 736.28125 C 1349.941406 735.550781 1345.929688 735.101562 1341.679688 734.941406 C 1336.761719 734.761719 1331.519531 734.960938 1325.960938 735.578125 L 1326.601562 740.230469 L 1338.539062 827.441406 "/>
<path fill-rule="evenodd" fill="rgb(67.771912%, 70.896912%, 33.325195%)" fill-opacity="1" d="M 1290.660156 744.988281 L 1295.550781 757.300781 L 1284.210938 757.898438 L 1283.691406 743.421875 L 1290.660156 744.988281 "/>
<path fill-rule="evenodd" fill="rgb(67.771912%, 70.896912%, 33.325195%)" fill-opacity="1" d="M 1305.011719 748.320312 L 1301.488281 757.171875 L 1313.46875 754.148438 L 1313.050781 742.070312 L 1308.78125 743.421875 L 1305.011719 748.320312 "/>
<path fill-rule="evenodd" fill="rgb(87.5%, 91.014099%, 49.804688%)" fill-opacity="1" d="M 1250.800781 724.148438 L 1248.378906 728.328125 L 1249.980469 736.609375 L 1258.800781 745.640625 L 1286.078125 761.441406 L 1286.289062 746.859375 L 1290.660156 744.988281 L 1250.800781 724.148438 "/>
<path fill-rule="evenodd" fill="rgb(87.5%, 91.014099%, 49.804688%)" fill-opacity="1" d="M 1324.640625 727.039062 L 1327.738281 730.199219 L 1328.210938 735.351562 L 1311.078125 761.441406 L 1308.78125 746.238281 L 1304.730469 749.019531 L 1306.28125 743.578125 L 1324.640625 727.039062 "/>
<path fill-rule="evenodd" fill="rgb(18.041992%, 32.151794%, 51.756287%)" fill-opacity="1" d="M 1301.980469 755.949219 L 1295.328125 756.71875 L 1291.519531 757.171875 L 1286.128906 757.800781 L 1290.609375 763.371094 L 1306.648438 762.011719 L 1310.269531 756.109375 L 1310.101562 755 L 1305.351562 755.550781 L 1301.980469 755.949219 "/>
<path fill-rule="evenodd" fill="rgb(18.041992%, 32.151794%, 51.756287%)" fill-opacity="1" d="M 1306.648438 762.011719 L 1290.609375 763.371094 L 1296.960938 977.269531 L 1326.121094 1006.429688 L 1341.53125 970.601562 L 1306.648438 762.011719 "/>
<path fill-rule="evenodd" fill="rgb(94.921875%, 68.164062%, 18.431091%)" fill-opacity="1" d="M 656.464844 1849.058594 C 670.761719 1852.148438 684.984375 1842.984375 688.074219 1828.6875 L 690.296875 1818.414062 C 711.875 1819.28125 733.492188 1815.5625 755.148438 1807.246094 C 770.984375 1801.316406 784.976562 1791.089844 797.121094 1776.566406 C 809.269531 1762.042969 817.671875 1744.023438 822.320312 1722.511719 C 826.972656 1700.996094 826.671875 1681.960938 821.414062 1665.40625 C 816.15625 1648.855469 807.886719 1636.238281 796.597656 1627.5625 C 785.308594 1618.882812 772.660156 1610.867188 758.660156 1603.511719 C 751.847656 1599.929688 745.253906 1596.660156 738.878906 1593.707031 L 751.785156 1534.003906 C 753.640625 1536.089844 755.621094 1538.664062 757.726562 1541.726562 C 759.96875 1544.980469 761.515625 1547.046875 762.363281 1547.921875 C 771.195312 1556.761719 779.085938 1561.933594 786.035156 1563.433594 C 797.949219 1566.011719 811.324219 1560.238281 826.15625 1546.125 C 836.605469 1536.257812 842.542969 1528.015625 843.976562 1521.394531 C 845.40625 1514.773438 842.027344 1505.554688 833.84375 1493.738281 L 823.46875 1481.621094 C 818.324219 1474.964844 808.117188 1467.300781 792.84375 1458.628906 C 785.832031 1454.648438 778.339844 1451.132812 770.363281 1448.074219 L 772.582031 1437.796875 C 775.675781 1423.503906 766.507812 1409.277344 752.210938 1406.1875 C 737.914062 1403.097656 723.691406 1412.265625 720.601562 1426.558594 L 718.589844 1435.855469 C 690.339844 1433.351562 665.636719 1438.910156 644.488281 1452.539062 C 618.121094 1469.535156 601.789062 1492.59375 595.492188 1521.722656 C 590.910156 1542.902344 591.214844 1561.9375 596.398438 1578.824219 C 601.582031 1595.707031 609.714844 1608.984375 620.789062 1618.65625 C 631.863281 1628.324219 644.128906 1637.300781 657.582031 1645.578125 C 662.304688 1648.484375 666.941406 1651.191406 671.496094 1653.699219 L 657.085938 1720.351562 L 657.019531 1720.292969 C 649.523438 1713.300781 644.066406 1706.492188 640.648438 1699.863281 C 627.675781 1679.734375 616.558594 1668.671875 607.289062 1666.667969 C 598.023438 1664.664062 588.390625 1666.738281 578.398438 1672.894531 C 561.164062 1683.71875 551.632812 1693.351562 549.804688 1701.789062 C 547.980469 1710.230469 550.226562 1720.675781 556.542969 1733.128906 L 559.828125 1739.554688 C 564.632812 1750.988281 574.664062 1763.898438 589.914062 1778.28125 C 597.304688 1785.769531 607.539062 1792.917969 620.617188 1799.730469 C 626.257812 1802.667969 632.128906 1805.28125 638.226562 1807.578125 L 636.09375 1817.449219 C 633.003906 1831.746094 642.171875 1845.96875 656.464844 1849.058594 Z M 708.570312 1733.890625 L 720.328125 1679.496094 C 721.976562 1680.804688 723.53125 1682.152344 724.988281 1683.539062 C 732.320312 1690.492188 735.164062 1697.777344 733.519531 1705.390625 C 730.128906 1721.070312 721.8125 1730.570312 708.570312 1733.890625 Z M 699.863281 1522.476562 L 690.234375 1567.027344 C 683.121094 1559.613281 680.542969 1551.390625 682.496094 1542.351562 C 684.464844 1533.246094 689.5625 1526.898438 697.789062 1523.308594 C 698.472656 1523.011719 699.164062 1522.734375 699.863281 1522.476562 "/>
<path fill-rule="evenodd" fill="rgb(33.325195%, 47.068787%, 10.984802%)" fill-opacity="1" d="M 1810.738281 1257.148438 C 1818.820312 1257.148438 1825.441406 1250.53125 1825.441406 1242.449219 L 1825.441406 1236.640625 C 1837.191406 1234.589844 1848.441406 1230.050781 1859.171875 1223.03125 C 1867.03125 1217.980469 1873.390625 1210.820312 1878.261719 1201.558594 C 1883.121094 1192.289062 1885.558594 1181.578125 1885.558594 1169.410156 C 1885.558594 1157.25 1883.171875 1147 1878.398438 1138.671875 C 1873.621094 1130.339844 1867.679688 1124.488281 1860.570312 1121.121094 C 1853.460938 1117.75 1845.691406 1114.898438 1837.269531 1112.558594 C 1833.171875 1111.421875 1829.21875 1110.429688 1825.441406 1109.578125 L 1825.441406 1075.820312 C 1826.679688 1076.730469 1828.050781 1077.890625 1829.550781 1079.289062 C 1831.140625 1080.789062 1832.210938 1081.730469 1832.78125 1082.101562 C 1838.578125 1085.839844 1843.441406 1087.71875 1847.371094 1087.71875 C 1854.109375 1087.71875 1860.660156 1083.039062 1867.03125 1073.679688 C 1871.519531 1067.128906 1873.761719 1061.980469 1873.761719 1058.238281 C 1873.761719 1054.488281 1870.859375 1049.910156 1865.058594 1044.480469 L 1858.039062 1039.148438 C 1854.488281 1036.148438 1848.078125 1033.199219 1838.808594 1030.300781 C 1834.558594 1028.96875 1830.101562 1027.949219 1825.441406 1027.230469 L 1825.441406 1021.421875 C 1825.441406 1013.328125 1818.820312 1006.71875 1810.738281 1006.71875 C 1802.648438 1006.71875 1796.039062 1013.328125 1796.039062 1021.421875 L 1796.039062 1026.671875 C 1780.488281 1028.621094 1767.789062 1034.511719 1757.960938 1044.339844 C 1745.699219 1056.601562 1739.570312 1070.960938 1739.570312 1087.429688 C 1739.570312 1099.410156 1741.960938 1109.660156 1746.730469 1118.179688 C 1751.5 1126.691406 1757.441406 1132.910156 1764.558594 1136.851562 C 1771.671875 1140.78125 1779.339844 1144.191406 1787.578125 1147.089844 C 1790.46875 1148.109375 1793.289062 1149.03125 1796.039062 1149.851562 L 1796.039062 1187.539062 L 1796 1187.519531 C 1791.128906 1184.621094 1787.390625 1181.578125 1784.769531 1178.398438 C 1775.410156 1169.039062 1768.109375 1164.359375 1762.871094 1164.359375 C 1757.628906 1164.359375 1752.671875 1166.601562 1747.988281 1171.101562 C 1739.941406 1178.960938 1735.921875 1185.269531 1735.921875 1190.050781 C 1735.921875 1194.820312 1738.351562 1200.199219 1743.21875 1206.191406 L 1745.75 1209.28125 C 1749.679688 1214.890625 1756.601562 1220.691406 1766.519531 1226.679688 C 1771.390625 1229.871094 1777.75 1232.53125 1785.609375 1234.691406 C 1789 1235.609375 1792.480469 1236.339844 1796.039062 1236.871094 L 1796.039062 1242.449219 C 1796.039062 1250.53125 1802.648438 1257.148438 1810.738281 1257.148438 Z M 1825.441406 1188.851562 L 1825.441406 1158.089844 C 1826.480469 1158.601562 1827.46875 1159.148438 1828.421875 1159.730469 C 1833.199219 1162.628906 1835.578125 1166.230469 1835.578125 1170.53125 C 1835.578125 1179.398438 1832.199219 1185.511719 1825.441406 1188.851562 Z M 1796.039062 1075.648438 L 1796.039062 1100.839844 C 1791.328125 1097.671875 1788.980469 1093.53125 1788.980469 1088.421875 C 1788.980469 1083.269531 1790.988281 1079.25 1795.019531 1076.339844 C 1795.351562 1076.101562 1795.691406 1075.871094 1796.039062 1075.648438 "/>
<path fill-rule="evenodd" fill="rgb(33.325195%, 47.068787%, 10.984802%)" fill-opacity="1" d="M 768.214844 1134.398438 C 773.859375 1134.398438 778.476562 1129.78125 778.476562 1124.140625 L 778.476562 1120.078125 C 786.691406 1118.648438 794.542969 1115.480469 802.035156 1110.578125 C 807.527344 1107.050781 811.972656 1102.050781 815.371094 1095.578125 C 818.769531 1089.109375 820.46875 1081.621094 820.46875 1073.128906 C 820.46875 1064.628906 818.800781 1057.46875 815.46875 1051.660156 C 812.132812 1045.839844 807.984375 1041.75 803.015625 1039.398438 C 798.050781 1037.050781 792.625 1035.058594 786.742188 1033.421875 C 783.878906 1032.628906 781.125 1031.929688 778.476562 1031.339844 L 778.476562 1007.761719 C 779.347656 1008.390625 780.304688 1009.199219 781.351562 1010.191406 C 782.460938 1011.230469 783.214844 1011.890625 783.605469 1012.148438 C 787.65625 1014.761719 791.054688 1016.070312 793.800781 1016.070312 C 798.507812 1016.070312 803.082031 1012.800781 807.527344 1006.269531 C 810.664062 1001.691406 812.230469 998.101562 812.230469 995.480469 C 812.230469 992.871094 810.207031 989.660156 806.152344 985.871094 L 801.253906 982.148438 C 798.769531 980.058594 794.289062 978 787.820312 975.96875 C 784.851562 975.039062 781.738281 974.320312 778.476562 973.820312 L 778.476562 969.761719 C 778.476562 964.121094 773.859375 959.5 768.214844 959.5 C 762.566406 959.5 757.949219 964.121094 757.949219 969.761719 L 757.949219 973.441406 C 747.085938 974.789062 738.21875 978.910156 731.351562 985.769531 C 722.789062 994.339844 718.507812 1004.371094 718.507812 1015.871094 C 718.507812 1024.238281 720.175781 1031.398438 723.507812 1037.339844 C 726.839844 1043.289062 730.992188 1047.640625 735.960938 1050.378906 C 740.925781 1053.128906 746.285156 1055.511719 752.035156 1057.539062 C 754.054688 1058.25 756.027344 1058.890625 757.949219 1059.46875 L 757.949219 1085.789062 L 757.921875 1085.769531 C 754.519531 1083.75 751.90625 1081.621094 750.074219 1079.398438 C 743.539062 1072.871094 738.441406 1069.601562 734.78125 1069.601562 C 731.121094 1069.601562 727.65625 1071.171875 724.390625 1074.300781 C 718.769531 1079.789062 715.960938 1084.210938 715.960938 1087.539062 C 715.960938 1090.871094 717.65625 1094.628906 721.058594 1098.808594 L 722.820312 1100.96875 C 725.566406 1104.890625 730.402344 1108.941406 737.332031 1113.128906 C 740.730469 1115.351562 745.175781 1117.210938 750.664062 1118.71875 C 753.03125 1119.359375 755.460938 1119.871094 757.949219 1120.238281 L 757.949219 1124.140625 C 757.949219 1129.78125 762.566406 1134.398438 768.214844 1134.398438 Z M 778.476562 1086.699219 L 778.476562 1065.21875 C 779.207031 1065.578125 779.902344 1065.960938 780.566406 1066.359375 C 783.898438 1068.390625 785.566406 1070.898438 785.566406 1073.910156 C 785.566406 1080.109375 783.203125 1084.371094 778.476562 1086.699219 Z M 757.949219 1007.640625 L 757.949219 1025.238281 C 754.660156 1023.019531 753.019531 1020.128906 753.019531 1016.558594 C 753.019531 1012.960938 754.421875 1010.148438 757.234375 1008.128906 C 757.46875 1007.960938 757.703125 1007.800781 757.949219 1007.640625 "/>
<path fill-rule="evenodd" fill="rgb(33.325195%, 47.068787%, 10.984802%)" fill-opacity="1" d="M 1023.800781 724.53125 C 1028.488281 724.53125 1032.328125 720.699219 1032.328125 716.011719 L 1032.328125 712.640625 C 1039.148438 711.449219 1045.671875 708.820312 1051.898438 704.738281 C 1056.460938 701.808594 1060.148438 697.660156 1062.96875 692.28125 C 1065.789062 686.910156 1067.210938 680.691406 1067.210938 673.628906 C 1067.210938 666.570312 1065.820312 660.628906 1063.050781 655.800781 C 1060.28125 650.960938 1056.839844 647.570312 1052.710938 645.621094 C 1048.578125 643.660156 1044.078125 642.011719 1039.191406 640.648438 C 1036.808594 639.988281 1034.519531 639.410156 1032.328125 638.921875 L 1032.328125 619.328125 C 1033.050781 619.859375 1033.839844 620.53125 1034.710938 621.351562 C 1035.628906 622.21875 1036.261719 622.761719 1036.578125 622.980469 C 1039.949219 625.148438 1042.769531 626.230469 1045.050781 626.230469 C 1048.960938 626.230469 1052.761719 623.519531 1056.460938 618.089844 C 1059.058594 614.289062 1060.371094 611.300781 1060.371094 609.128906 C 1060.371094 606.960938 1058.679688 604.300781 1055.320312 601.148438 L 1051.238281 598.050781 C 1049.179688 596.320312 1045.460938 594.609375 1040.089844 592.921875 C 1037.621094 592.148438 1035.03125 591.558594 1032.328125 591.140625 L 1032.328125 587.769531 C 1032.328125 583.078125 1028.488281 579.238281 1023.800781 579.238281 C 1019.109375 579.238281 1015.269531 583.078125 1015.269531 587.769531 L 1015.269531 590.820312 C 1006.25 591.949219 998.882812 595.359375 993.175781 601.070312 C 986.0625 608.179688 982.507812 616.511719 982.507812 626.070312 C 982.507812 633.019531 983.894531 638.96875 986.660156 643.910156 C 989.429688 648.851562 992.878906 652.460938 997.003906 654.738281 C 1001.128906 657.019531 1005.578125 659 1010.359375 660.679688 C 1012.039062 661.269531 1013.679688 661.808594 1015.269531 662.28125 L 1015.269531 684.148438 L 1015.25 684.140625 C 1012.421875 682.460938 1010.25 680.691406 1008.730469 678.839844 C 1003.300781 673.410156 999.066406 670.699219 996.027344 670.699219 C 992.988281 670.699219 990.109375 672 987.394531 674.609375 C 982.726562 679.171875 980.390625 682.839844 980.390625 685.601562 C 980.390625 688.371094 981.800781 691.488281 984.625 694.96875 L 986.089844 696.761719 C 988.371094 700.019531 992.390625 703.390625 998.144531 706.859375 C 1000.96875 708.710938 1004.660156 710.25 1009.21875 711.5 C 1011.191406 712.039062 1013.199219 712.460938 1015.269531 712.769531 L 1015.269531 716.011719 C 1015.269531 720.699219 1019.109375 724.53125 1023.800781 724.53125 Z M 1032.328125 684.910156 L 1032.328125 667.058594 C 1032.929688 667.359375 1033.511719 667.679688 1034.058594 668.011719 C 1036.828125 669.699219 1038.210938 671.789062 1038.210938 674.28125 C 1038.210938 679.429688 1036.25 682.96875 1032.328125 684.910156 Z M 1015.269531 619.230469 L 1015.269531 633.851562 C 1012.539062 632.011719 1011.179688 629.609375 1011.179688 626.640625 C 1011.179688 623.648438 1012.339844 621.320312 1014.679688 619.640625 C 1014.871094 619.5 1015.070312 619.359375 1015.269531 619.230469 "/>
<path fill-rule="evenodd" fill="rgb(33.325195%, 47.068787%, 10.984802%)" fill-opacity="1" d="M 1716.699219 698.320312 C 1722.839844 698.320312 1727.871094 693.289062 1727.871094 687.148438 L 1727.871094 682.730469 C 1736.808594 681.171875 1745.359375 677.71875 1753.519531 672.390625 C 1759.488281 668.539062 1764.328125 663.101562 1768.03125 656.058594 C 1771.730469 649.019531 1773.578125 640.871094 1773.578125 631.621094 C 1773.578125 622.371094 1771.769531 614.578125 1768.140625 608.25 C 1764.511719 601.921875 1759.988281 597.46875 1754.578125 594.910156 C 1749.179688 592.351562 1743.269531 590.179688 1736.871094 588.398438 C 1733.75 587.53125 1730.75 586.78125 1727.871094 586.128906 L 1727.871094 560.460938 C 1728.820312 561.148438 1729.859375 562.039062 1731 563.109375 C 1732.210938 564.238281 1733.03125 564.960938 1733.449219 565.238281 C 1737.859375 568.089844 1741.558594 569.511719 1744.550781 569.511719 C 1749.671875 569.511719 1754.660156 565.949219 1759.488281 558.839844 C 1762.910156 553.859375 1764.621094 549.941406 1764.621094 547.101562 C 1764.621094 544.25 1762.410156 540.769531 1758 536.640625 L 1752.660156 532.578125 C 1749.960938 530.308594 1745.089844 528.070312 1738.039062 525.859375 C 1734.808594 524.851562 1731.421875 524.070312 1727.871094 523.519531 L 1727.871094 519.101562 C 1727.871094 512.960938 1722.839844 507.929688 1716.699219 507.929688 C 1710.550781 507.929688 1705.519531 512.960938 1705.519531 519.101562 L 1705.519531 523.101562 C 1693.699219 524.578125 1684.050781 529.058594 1676.570312 536.53125 C 1667.25 545.851562 1662.589844 556.769531 1662.589844 569.300781 C 1662.589844 578.398438 1664.410156 586.191406 1668.03125 592.671875 C 1671.660156 599.140625 1676.179688 603.871094 1681.589844 606.859375 C 1686.988281 609.851562 1692.828125 612.449219 1699.089844 614.648438 C 1701.289062 615.429688 1703.429688 616.128906 1705.519531 616.75 L 1705.519531 645.410156 L 1705.488281 645.390625 C 1701.789062 643.179688 1698.949219 640.871094 1696.949219 638.449219 C 1689.839844 631.339844 1684.289062 627.78125 1680.308594 627.78125 C 1676.320312 627.78125 1672.550781 629.488281 1668.988281 632.898438 C 1662.878906 638.878906 1659.820312 643.679688 1659.820312 647.308594 C 1659.820312 650.941406 1661.671875 655.03125 1665.371094 659.578125 L 1667.289062 661.929688 C 1670.28125 666.199219 1675.539062 670.609375 1683.078125 675.160156 C 1686.78125 677.578125 1691.621094 679.609375 1697.601562 681.238281 C 1700.171875 681.949219 1702.820312 682.5 1705.519531 682.898438 L 1705.519531 687.148438 C 1705.519531 693.289062 1710.550781 698.320312 1716.699219 698.320312 Z M 1727.871094 646.390625 L 1727.871094 623.011719 C 1728.660156 623.398438 1729.421875 623.820312 1730.140625 624.261719 C 1733.769531 626.460938 1735.589844 629.199219 1735.589844 632.46875 C 1735.589844 639.21875 1733.019531 643.859375 1727.871094 646.390625 Z M 1705.519531 560.339844 L 1705.519531 579.488281 C 1701.949219 577.078125 1700.160156 573.929688 1700.160156 570.039062 C 1700.160156 566.128906 1701.691406 563.070312 1704.75 560.859375 C 1705 560.679688 1705.261719 560.511719 1705.519531 560.339844 "/>
<path fill-rule="evenodd" fill="rgb(33.325195%, 47.068787%, 10.984802%)" fill-opacity="1" d="M 650.410156 969.160156 C 653.335938 969.160156 655.726562 966.769531 655.726562 963.839844 L 655.726562 961.738281 C 659.980469 961 664.050781 959.359375 667.933594 956.820312 C 670.777344 954.988281 673.078125 952.398438 674.839844 949.050781 C 676.601562 945.691406 677.480469 941.820312 677.480469 937.421875 C 677.480469 933.011719 676.617188 929.308594 674.890625 926.289062 C 673.164062 923.28125 671.015625 921.160156 668.441406 919.941406 C 665.867188 918.71875 663.054688 917.691406 660.007812 916.839844 C 658.523438 916.429688 657.097656 916.070312 655.726562 915.761719 L 655.726562 903.550781 C 656.179688 903.878906 656.675781 904.300781 657.214844 904.808594 C 657.789062 905.351562 658.179688 905.691406 658.382812 905.820312 C 660.484375 907.179688 662.242188 907.851562 663.664062 907.851562 C 666.105469 907.851562 668.472656 906.160156 670.777344 902.769531 C 672.402344 900.398438 673.214844 898.539062 673.214844 897.191406 C 673.214844 895.828125 672.164062 894.171875 670.066406 892.210938 L 667.527344 890.28125 C 666.238281 889.199219 663.921875 888.128906 660.566406 887.078125 C 659.027344 886.601562 657.414062 886.230469 655.726562 885.96875 L 655.726562 883.859375 C 655.726562 880.941406 653.335938 878.550781 650.410156 878.550781 C 647.484375 878.550781 645.089844 880.941406 645.089844 883.859375 L 645.089844 885.769531 C 639.464844 886.46875 634.871094 888.601562 631.3125 892.160156 C 626.875 896.601562 624.65625 901.789062 624.65625 907.75 C 624.65625 912.089844 625.519531 915.789062 627.246094 918.878906 C 628.976562 921.960938 631.125 924.210938 633.699219 925.628906 C 636.273438 927.050781 639.046875 928.289062 642.027344 929.339844 C 643.074219 929.710938 644.09375 930.039062 645.089844 930.339844 L 645.089844 943.980469 L 645.074219 943.96875 C 643.316406 942.921875 641.960938 941.820312 641.011719 940.671875 C 637.628906 937.28125 634.984375 935.589844 633.089844 935.589844 C 631.191406 935.589844 629.398438 936.398438 627.703125 938.019531 C 624.792969 940.871094 623.335938 943.148438 623.335938 944.878906 C 623.335938 946.609375 624.21875 948.558594 625.976562 950.71875 L 626.890625 951.839844 C 628.3125 953.871094 630.820312 955.96875 634.410156 958.140625 C 636.171875 959.289062 638.472656 960.25 641.316406 961.03125 C 642.542969 961.371094 643.800781 961.628906 645.089844 961.820312 L 645.089844 963.839844 C 645.089844 966.769531 647.484375 969.160156 650.410156 969.160156 Z M 655.726562 944.449219 L 655.726562 933.320312 C 656.105469 933.5 656.464844 933.699219 656.808594 933.910156 C 658.535156 934.960938 659.398438 936.261719 659.398438 937.820312 C 659.398438 941.03125 658.175781 943.238281 655.726562 944.449219 Z M 645.089844 903.488281 L 645.089844 912.601562 C 643.386719 911.460938 642.535156 909.960938 642.535156 908.109375 C 642.535156 906.25 643.265625 904.789062 644.71875 903.738281 C 644.839844 903.648438 644.964844 903.570312 645.089844 903.488281 "/>
<path fill-rule="evenodd" fill="rgb(15.281677%, 27.830505%, 45.092773%)" fill-opacity="1" d="M 1395.46875 1510.714844 C 1394.589844 1522.40625 1393.558594 1534.035156 1392.21875 1545.585938 C 1391.589844 1550.957031 1390.898438 1556.3125 1390.140625 1561.644531 C 1390.089844 1561.96875 1390.039062 1562.292969 1390 1562.617188 C 1389.839844 1563.726562 1389.679688 1564.835938 1389.519531 1565.945312 C 1389.679688 1566.011719 1389.839844 1566.078125 1390 1566.140625 C 1391.421875 1566.722656 1392.941406 1567.246094 1394.539062 1567.71875 L 1397.710938 1545.195312 L 1404.109375 1499.753906 C 1401.121094 1503.546875 1398.230469 1507.210938 1395.46875 1510.714844 "/>
</svg>
